<svg id="Lager_1" viewBox="0 0 128 128" xmlns="http://www.w3.org/2000/svg"><style>.st1{fill:#fff}</style><path d="M64 14a50 50 0 1 0 0 100 50 50 0 0 0 0-100z" fill="#85c808"/><path class="st1" d="M42.5 50.3a3.9 3.9 0 0 0-3.9 3.9v15.7a3.9 3.9 0 0 0 7.8 0V54.2c0-2.2-1.8-3.9-3.9-3.9zM85.5 50.3a3.9 3.9 0 0 0-3.9 3.9v15.7a3.9 3.9 0 0 0 7.8 0V54.2c0-2.2-1.7-3.9-3.9-3.9zM48.3 81.6h3.9v9.8a3.9 3.9 0 0 0 7.8 0v-9.8h7.8v9.8a3.9 3.9 0 0 0 7.8 0v-9.8h3.9V52.2H48.3v29.4zM73.2 37.7l2-3.5c.3-.5.1-1.1-.4-1.3-.5-.3-1.1-.1-1.3.4l-2 3.4c-2.2-1.3-4.8-2-7.6-2s-5.3.7-7.6 2l-2-3.4a1 1 0 0 0-1.3-.4 1 1 0 0 0-.4 1.3l2 3.5a15.4 15.4 0 0 0-6.4 12.6h31.3c.2-5.2-2.4-9.8-6.3-12.6zm-15.1 6.7c-1.1 0-2-.9-2-2s.9-2 2-2 2 .9 2 2-.9 2-2 2zm11.8 0c-1.1 0-2-.9-2-2s.9-2 2-2 2 .9 2 2-.9 2-2 2z"/></svg>