<svg version="1" viewBox="0 0 504 504" xmlns="http://www.w3.org/2000/svg"><path d="M455 259c-10 58-28 75-59 115-32 33-78 89-142 86-59-10-76-28-115-59-33-32-89-78-86-142 9-59 27-76 59-115 32-33 77-89 142-86 58 9 75 27 115 59 33 32 89 77 86 142z" fill="#3765AF"/><path d="M333 176c6 10 10 21 10 34 0 14-4 25-10 33-4 4-10 9-17 12 11 4 19 11 25 20s9 20 9 32a65 65 0 0 1-26 53c-7 5-15 9-25 11-9 2-20 3-31 3H168V153h107c27 0 46 8 58 23zm-121 15v49h54c10 0 18-2 24-5 6-4 9-10 9-20s-4-17-12-20c-7-2-16-4-26-4h-49zm0 86v59h54c10 0 17-2 23-4 9-5 14-14 14-28 0-11-5-19-14-24-5-2-13-3-22-3h-55z" fill="#FFF"/></svg>