<svg xmlns="http://www.w3.org/2000/svg" viewBox="0 0 512 512"><path d="M512 256a255.6 255.6 0 0 1-256 256A255.6 255.6 0 0 1 0 256a256 256 0 1 1 512 0z" fill="#f2f2f2"/><path d="M442 119.5l-29.2 338.9C369.5 492 315 512 256 512s-113.5-20-156.8-53.6L70 119.4h372z" fill="#006bc0"/><path fill="#0096dc" d="M256 151.3v354l122.3-34.5 27.2-319.5z"/><path fill="#fff" d="M364 289.8H276l92.1-47 4-47H140l4 48h93.2l-89.4 44.7 4.2 49.2h159.4l-5.2 58.7L256 410l-52.2-14.7-1.4-36.6h-48.6l6 72.1L256 458l96.1-27.2 12-141z"/><g fill="#222123"><path d="M165.4 67.2V33.8h48V15.7H148v69.6h65.5v-18zM241.5 43v-8.4h47.8V15.7H224v43.2h46.9v8.3h-47v18.1h65.5V43zM316.3 43v-8.4H364V15.7h-65.5v43.2h47v8.3h-47v18.1H364V43z"/></g></svg>