<svg xmlns="http://www.w3.org/2000/svg" viewBox="0 0 512 512"><path d="M512 256a255.6 255.6 0 0 1-256 256A255.6 255.6 0 0 1 0 256a256 256 0 1 1 512 0z" fill="#f2f2f2"/><path d="M442 119.5l-29.2 338.9A254.8 254.8 0 0 1 256 512a254.8 254.8 0 0 1-155.6-52.7L71.1 119.5H442z" fill="#e64c18"/><path fill="#f36518" d="M256.5 151.2v353l122-34.4 27.2-318.6z"/><path fill="#fff" d="M140.9 195.5l12 141.6h158.9l-5.2 58.5-50 13.5-52.1-14.6-1.3-36.4h-48.6l6.1 71.8 95.8 27.1 95.9-27 11.9-140.7H196.9l-4.1-45.8 175.4-1 4-47z"/><path d="M151.2 16.8v24.3h-23.3V16.8h-21.6v69.7h21.6V63.8h23.3v22.7h21.6V16.8zM249.5 16.8H183v24.3h21.7v46h23.2V41h21.6zM373.3 64.9V17.3H350v69.8h56.8V64.9zM315 17.3l-16.3 24.9-16.2-24.9h-23.3v69.8h23.3V52.5l16.2 24.8 16.2-24.8V87h23.3V17.3z"/></svg>