<svg xmlns="http://www.w3.org/2000/svg" width="50" height="50"><path d="M29.87 3c-.1.02-.21.05-.32.1A7.61 7.61 0 0 0 27.5 5.1a8.97 8.97 0 0 0-1.5 4.9 9.88 9.88 0 0 0 .77 3.89 12 12 0 0 0 6.76 6.48l.38.13.18.06.11.04a13.91 13.91 0 0 0 2.77.4l.37.01c5.48 0 7.6-3.87 8.32-5.16l.16-.29a1 1 0 0 0-1.65-1.13c-1.46 2.15-3.96 2.8-7.42 1.95a9.56 9.56 0 0 1-3.44-1.71c-3.05-2.37-4.24-7.29-2.46-10.13a1 1 0 0 0-.98-1.52zM21 5a.98.98 0 0 0-.65.23c-1.5 1.23-3.06 3.24-3.12 3.32l-.03.05c-2.73 3.98-2.94 9.64-.52 14.43a18 18 0 0 0 1.26 2.14l.14.2c.39.56.82 1.2 1.37 1.7l.6.64.1.1.09.08.63.6.07.06c.24.22.5.42.82.68l.1.07a16.65 16.65 0 0 0 .86.65c.1.07.2.12.29.2l.09.05.1.07a11.66 11.66 0 0 0 1.18.7l.25.14.3.16.1.04.62.3.31.14.68.27.12.04.1.05.58.2.44.14c.22.07.47.16.75.2 1.36.23 2.68.35 3.94.35h.44a14.62 14.62 0 0 0 13.94-9.72 1 1 0 0 0-1.79-.84c-2.8 4.08-8.08 5.81-13.47 4.39a11.58 11.58 0 0 1-1.51-.48l-.28-.1a12.3 12.3 0 0 1-.52-.22l-.12-.06-.68-.31-.57-.3c-.13-.06-.24-.13-.42-.24l-.1-.05-.1-.06a6.48 6.48 0 0 1-.42-.27l-.09-.06-.1-.07-.33-.22c-.25-.17-.48-.35-.76-.57l-.11-.09a16.06 16.06 0 0 1-5.38-7.75c-.83-2.71-.21-6.25 1.65-9.48a1 1 0 0 0-.85-1.5zM10 8a1 1 0 0 0-.68.26 21.95 21.95 0 0 0-3.5 4.19c-4.08 5.95-3.3 15.2-.49 20.85l.18.34.03.06.13.26.1.18.18.33.32.55a6.1 6.1 0 0 1 .3.5l.16.24.13.18c.15.24.31.49.48.72l.03.02.06.09c.14.2.28.4.41.56l.57.72.08.1.08.08c.17.22.35.43.54.63l.08.09.54.58.18.17a9.91 9.91 0 0 0 .53.53l.16.15a12.17 12.17 0 0 0 .69.62l.55.47.96.76.51.37a3.48 3.48 0 0 0 .27.2l.72.48.85.52.17.1.6.33c.1.07.22.12.32.17l.5.27.2.1a18.4 18.4 0 0 0 1.83.8l.7.26.15.06a37.1 37.1 0 0 0 1.03.33l.2.06c.24.08.48.15.75.2 1.85.34 3.67.52 5.39.52 14.33 0 18.9-11.53 18.94-11.64a1 1 0 0 0-1.74-.97c-3.67 4.84-10.6 6.64-18.54 4.82l-.58-.16-.38-.12c-.25-.07-.5-.16-.75-.25l-.12-.04-.63-.23-.22-.09-.71-.3-.14-.06-.62-.3-.19-.09a14.9 14.9 0 0 1-.46-.24l-.82-.44a2.8 2.8 0 0 0-.25-.14c-.24-.16-.5-.3-.75-.47l-.2-.14c-.18-.1-.34-.22-.59-.4l-.1-.06-.47-.35-.3-.24-.38-.28-.21-.18-.54-.46a.5.5 0 0 0-.07-.06c-.2-.18-.4-.36-.64-.6l-.71-.7a20.91 20.91 0 0 1-1.12-1.24l-.42-.52-.18-.22-.43-.6C8.78 24.89 7.78 13.7 10.8 9.6A1 1 0 0 0 10 8z"/></svg>