<svg xmlns="http://www.w3.org/2000/svg" viewBox="0 0 512 512"><path d="M512 256a256 256 0 1 1-512 0 256 256 0 0 1 512 0z" fill="#f2f2f2"/><path fill="#3b8739" d="M243.2 276.6V210l-57.6-33.3-57.7 33.3v66.6l57.7 33.2z"/><path d="M470.2 266.5l37.6 21.7-37.6 21.6-57.6-33.2V210l57.6-33.3 35 20.2c3.4 14.8 5.6 30 6.4 45.6L490.3 255v-23.2L470.2 220l-20 11.6v23.2l20 11.6z" fill="#333"/><path fill="#66a060" d="M481.4 249.7v-12.9l-11.2-6.4-11.2 6.4v13l11.2 6.4z"/><path d="M100.7 210v87.8l-38.5-22v-45l-19.2-11-19.1 11v45L2 288.3a257.4 257.4 0 0 1 4.7-90.6l36.3-21 57.7 33.3z" fill="#333"/><path fill="#6da75d" d="M185.5 176.7l57.7 99.9-57.7 33.3L128 210z"/><path fill="#55a344" d="M128 276.6l19.7-32.3-19.8-34.3z"/><path fill="#639d57" d="M224 243.3l19.2-33.3-57.6-33.3z"/><path d="M346.6 99.6v88.3l-19.4-11.2-57.6 33.3v66.6l57.6 33.2 57.7-33.2V120l-38.3-20.5zm-.2 154.8l-19.2 11-19.2-11v-22.2l19.2-11.1 19.2 11v22.3z" fill="#333"/><g fill="#66a060"><path d="M282.1 358.7s-1-9.7-11.5-9.7c-10.4 0-17.5 1.3-17.5 7.1s20.2 5.8 28 8c7.6 2.3 14.4 8.2 11 18.6-3.4 10.4-13.8 11.5-29.9 11.5s-19.6-13.3-19.6-18.5h9s-1.1 8.1 9.5 9.5c10.6 1.3 20.8 2.1 22.2-6.1 1.8-10.9-34.4-5.5-37.6-16-2.7-9-1.1-20.9 17-22.7 18-1.8 28 6.2 28 18l-8.6.3z"/><path d="M194.7 401.1l20 11.6a15 15 0 0 0 22.7-13V342h-8.2v55.3a8.2 8.2 0 0 1-12.4 7l-14-8v-59L254 308l51 29.5v59l-51 29.4-14.7-8.5-9.6 3.9 24.3 14 59.2-34.2v-68.3L254 298.6l-59.2 34.2V401z"/></g></svg>