<svg xmlns="http://www.w3.org/2000/svg" viewBox="0 0 512 512"><path d="M512 256a255.6 255.6 0 0 1-3.4 41.6A256 256 0 1 1 512 256z" fill="#f2f2f2"/><path d="M446.8 285c-7.8 3-7.5 3-11.6-4.5A65 65 0 0 1 427 250c-.2-9.3 2.4-18 5.6-26.5 2.6-6.8-.8-9.2-6.6-9.8a64 64 0 0 0-13 0c-11.1 1.2-12.2 2.1-15.2 13-1.7 6.3-3.1 12.8-6 18.9-7.3 15-15.4 29.4-23.8 43.8-1.5 2.6-2.8 5.3-4.9 7.5-6-9-8.3-19-8.8-29.6-.6-10.4 2.6-20 6.1-29.6 1.2-3.3.2-5.3-2.5-6.7-1.3-.6-2.7-1.1-4-1.2-7.2-.6-14.3-.5-21.3 1.4-3 .9-5.1 2.6-5.8 6.2a93.8 93.8 0 0 1-6.4 20c-8 17.8-15.8 35.7-23.7 53.5-7 15.5-13.7 31-21.9 46-.6 1-1 2.8-2.5 2.4-1.5-.3-1-2.1-1-3.4-.5-8.7 2-17.1 4-25.5 3.2-13.3 6.7-26.5 10.1-39.7 1-3.8-.6-6.3-3.8-8.1-4.5-2.6-9-2.8-13.9.9.7-5.4 1-10.1.7-14.9-.5-10.5-5.4-17.4-13.9-19-6.2-1.1-12.1.7-17.7 3.3a89.2 89.2 0 0 0-32 26.6c-1.1 1.3-2.1 2.5-3.6 3.3l-49.3 27c-1.8 1-3 .7-4.2-.7-8.3-8.9-17.9-16.2-27.4-23.6-13.2-10.3-27-20.2-38.4-32.6a63.2 63.2 0 0 1-15-25 57.3 57.3 0 0 1 6.4-44.6c9-16.6 22.3-29.4 37-40.7C133.5 124.5 159 110 186 98.3c30.2-13.2 61.5-21.7 94.8-20.4 13.2.5 26 2.8 37.8 9.2a28 28 0 0 1 15.4 21 51.1 51.1 0 0 1-6 31.7 123.3 123.3 0 0 1-50.3 50.4 167.4 167.4 0 0 1-56.8 20.2c-11.1 1.9-22.3 3-33.5 1.3a51.7 51.7 0 0 1-33.5-16.6c-1-1.2-2.3-2-4-1.1-1.8.8-1.7 2.4-1.5 3.9.1 1 .4 2 .8 3a36 36 0 0 0 11.9 15.4c13.4 10.8 29.3 14 46 14.4 16.2.3 32.3-1.8 48.2-5.6 35.8-8.5 65.9-26.1 87.8-56.3a96.2 96.2 0 0 0 20.7-60.5 53 53 0 0 0-15.9-37.5 88.7 88.7 0 0 0-44.6-22.2 165.9 165.9 0 0 0-56-2.4c-16.5 2-32.6 5.3-48.2 10.7-24 8.2-47 18.3-69.1 30.7-22.7 12.6-44 27-62.8 45a149.3 149.3 0 0 0-38.8 55.6 51 51 0 0 0-3.6 29.2c3 13 9.4 24.4 17.9 34.6a231.4 231.4 0 0 0 44.7 39.2c13 9.3 26.6 17.8 39 27.9 3.6 2.8 3.6 2.8-.6 5-4.8 2.5-9.8 5-14.6 7.7A213 213 0 0 0 58.1 371a60.2 60.2 0 0 0-15 27.2 256.8 256.8 0 0 0 43.8 50c28.5-2.2 50.2-17 66.3-41.5a85.1 85.1 0 0 0 12.8-39.3c1.2-12.4 0-24.4-3.7-36.3-.7-2-3-4.2-2.1-6 .8-1.7 3.5-2.6 5.4-3.7L189 308c.3 1.7-.3 2.7-.6 3.8-4.6 16.8-7.8 33.7-4.3 51.2a71.2 71.2 0 0 0 12.6 30c7 9.3 22.8 8.3 29.2-.2 6-8 10.1-17 14.3-26l6.6-15c-.4 6-.4 11.9-.2 17.7.2 5.7 1.2 11.4 4.1 16.5 3.6 6 10.4 7.9 16.7 4.6a37 37 0 0 0 14.6-15.2c15-26.5 29-53.5 40.6-81.6l7.8-18.7 1 4.9c2.6 13.4 7.1 26.1 13.8 38 1.4 2.6 1.2 4.4-.6 6.9-6 8.3-12.8 16-19.4 24-5.5 6.6-11.4 13-16.1 20.3-4.2 6.6-1.8 13.3 5.2 14.8 2.2.5 4.4.6 6.6.6a69.7 69.7 0 0 0 34-9.8c14.2-8 22.5-19.9 22.1-36.7a58 58 0 0 0-5.3-22c-.7-1.5-.7-2.7.3-4.1 9.8-14 18.5-28.8 26.4-43.9 1.4-2.6 2.4-5.6 4.7-8.2l.7 2.4c2.5 12.5 6 24.8 12.3 36 1.8 3 .9 4.6-1.5 6.6a96 96 0 0 0-21 24.9 46.8 46.8 0 0 0-7.2 23.9c0 9.6 7.4 15.3 16.8 13a74.6 74.6 0 0 0 27-12.3c17.6-13 22.8-26.6 17.3-45.7-2.2-7.5-2.1-7.4 5.4-9.7a109.7 109.7 0 0 1 55.6-1.3c1-6 1.8-12 2.3-18.2-21.5-5.2-43-2.5-64.1 5.6zM98.6 419.4a35.7 35.7 0 0 1-14.8 2c-6.4-.5-10.4-5-10.8-11.7a42 42 0 0 1 5.2-21.5c6.2-12.3 16.5-20.7 27-28.9 10.3-8 21.3-14.8 32.5-21.4 3.4-2 3.4-2 4.2 2a69.4 69.4 0 0 1-43.3 79.5zM252 277.5a173.5 173.5 0 0 1-9.8 34.3c-5.6 15.3-11.1 30.6-18.2 45.2a35.5 35.5 0 0 1-6 9.5c-2.4 2.6-4.6 2.3-6.3-.9-3.4-6.2-3-13-3.5-18.1.2-25.2 8.6-45.7 22.5-64.2 3.9-5.2 8.9-9.4 15.4-11 4.5-1.2 6.6.6 5.9 5.2zm97.3 74.5a47 47 0 0 1-20 18.5c-1 .4-2 1.2-2.9.2-.8-1 .5-1.7 1-2.3a383 383 0 0 0 24.1-28.3l1-.4c0 4.6-1 8.6-3.2 12.3zm57.8-.4c-1.2.6-2.7 1.7-3.9.8-1.3-1-.8-2.9-.4-4.3a67.3 67.3 0 0 1 18.7-31c1.7-1.6 2.4-1.4 3 .8.5 2.3.6 4.6.6 7-.1 12.9-6.6 21.4-18 26.8z" fill="#cd6699"/></svg>