<svg xmlns="http://www.w3.org/2000/svg" xmlns:xlink="http://www.w3.org/1999/xlink" width="180.6" height="180.6"><defs><linearGradient x2="1" id="a" gradientUnits="userSpaceOnUse" gradientTransform="matrix(0 -91.8907 -91.8907 0 85.9 161.4)"><stop offset="0" stop-color="#97d9f6"/><stop offset=".9" stop-color="#0f80cc"/><stop offset="1" stop-color="#0f80cc"/></linearGradient><linearGradient x1="-15.6" y1="-9.1" x2="-6.7" y2="-9.1" id="b" xlink:href="#a" gradientUnits="userSpaceOnUse" gradientTransform="matrix(0 -9.18907 -9.18907 0 8.6 16.1)"/></defs><path d="M96.7 132.9l-.1-1.5s-2.8-18.5-6-24c-.5-.8 0-4.4 1.5-9.7.8 1.4 4.4 7.6 5 9.6.9 2.3 1 3 1 3s-1.9-10-5-16c.6-2.3 1.5-4.9 2.4-7.7a99.5 99.5 0 0 1 5 10l.2-.5c-.8-3-2.2-8.5-4.2-12.5C101 61 115.8 30.6 131 17H31.5c-6.6 0-12.1 5.5-12.1 12.2v109.7c0 6.7 5.5 12.1 12.1 12.1h65.6c-.5-5.7-.7-12-.4-18.1" fill="#0f80cc"/><path d="M99.4 99.8c.7-1.2 3.5-6.2 4-7.8l.9-2.3s-1.6 8-4.1 12.7c.5 1.9 1.2 4 2 6.2l3.6-6.8v1c-.6 2.4-1.6 5.6-2.8 8.2a115 115 0 0 0 24.7 50.4H51c-3.8 0-7-3-7-6.8V73.2a162 162 0 0 0 56.4 12.5c-.6 2.6-1.4 4.9-2.2 6.2-.4.7 0 3.6 1.2 7.9" fill="url(#b)" transform="matrix(1.25 0 0 -1.25 -32.2 222.4)"/><path d="M154.2 13.4c-6.8-6-15-3.6-23.2 3.6l-3.6 3.6a143.8 143.8 0 0 0-30.9 63 57.6 57.6 0 0 1 4.7 15l-.6-2a122.9 122.9 0 0 0-.6-1.5c-.9-2-3.4-6.5-4.5-8.5L93 94.4c3.2 5.8 5.2 15.9 5.2 15.9l-1-3c-.7-2-4.3-8.2-5.1-9.6-1.5 5.3-2 8.9-1.5 9.7 1 1.7 2 4.6 2.8 7.9a182.1 182.1 0 0 1 3.3 17.6 148 148 0 0 0 .4 18.1c.6 7.6 1.8 14.1 3.3 17.6l1-.6a78.5 78.5 0 0 1-2.7-26.2c.6-15.8 4.2-35 11-54.9 11.3-30 27.1-54.1 41.6-65.7-13.2 12-31 50.4-36.4 64.7-6 16-10.2 31-12.7 45.3a35.2 35.2 0 0 1 18.6-19.2s7-8.6 15.2-21c-5 1.2-13 3-15.6 4.2l-5 2.2s12.8-7.8 23.8-11.3c15.2-23.9 31.7-57.8 15-72.7" fill="#003b57"/></svg>