<svg xmlns="http://www.w3.org/2000/svg" viewBox="0 0 512 512"><path d="M512 256a256.2 256.2 0 0 1-88.5 193.6A256 256 0 1 1 512 256z" fill="#0078cf"/><g fill="#f2f2f2"><path d="M503.2 323a256 256 0 0 1-79.7 126.6c-3.7.2-7.5.3-11.6.3-53.1 0-82.7-33.3-97.3-58.2l48.1-29s16.4 35 47.2 35c30.7 0 43-10.3 43-34 0-28.6-99.4-38.8-114.7-88-15.4-49.2 5-118.9 76.8-113.8 44.8 3.2 70 25.3 82.7 41.3l-47.9 34.6c-10.2-29.7-52.2-29.7-60.4-5.2-8.2 24.6 19.4 39 62.5 53.3 22.1 7.4 39.9 21 51.3 37zM301 169.8H83v51.4H163v223.3h58.2V221.1H301z"/></g></svg>