<svg height="512" id="icon_design" width="512" xmlns="http://www.w3.org/2000/svg"><style>.st1{fill:#369}</style><path class="st1" d="M231.3 325.2H347a8 8 0 1 0 0-16.2H231.3a8 8 0 0 0-8.1 8.1c0 .8.2 1.5.4 2.2a8 8 0 0 0 7.7 5.9z"/><path class="st1" d="M434.1 199H212.7a33.3 33.3 0 0 0-33.3 33.3h11.5-11.5V358.7c-.1.9-.2 1.6 0 1.9v.2a33.3 33.3 0 0 0 33.3 32.6H434a33.3 33.3 0 0 0 33.3-33.3V232.3a33.3 33.3 0 0 0-33.3-33.3zm10.4 161.1c0 5.8-4.6 10.4-10.4 10.4H212.7c-5.5 0-10-4.2-10.3-9.6V288h242v72.1zm0-112.9H202.3v-14.9c0-5.7 4.7-10.4 10.4-10.4H434c5.8 0 10.4 4.7 10.4 10.4v15z"/><path class="st1" d="M330.4 181l-23.1-63.7a33.3 33.3 0 0 0-42.7-19.8l-208 75.7a33.3 33.3 0 0 0-20 42.6L80.4 336a33.2 33.2 0 0 0 42.6 20l38.4-14v-51.8L118.1 306a8.1 8.1 0 0 1-5.5-15.2l48.6-17.7v-40.7-1.3c.7-27.7 23.4-50 51.4-50h117.7zm-198.3 69.7l-24.3 8.8a13.2 13.2 0 0 1-17-8l-6-16.2a13.3 13.3 0 0 1 8-17.1l24.2-8.8a13.4 13.4 0 0 1 17.1 8l6 16.2c.5 1.5.7 3 .7 4.6 0 5.4-3.4 10.4-8.7 12.5z"/><path fill="none" d="M0 0h512v512H0z"/></svg>